<svg width="194" height="221" viewBox="0 0 194 221" fill="none" xmlns="http://www.w3.org/2000/svg">
<path d="M151.99 116.892C149.825 116.892 147.66 116.892 145.927 117.324V103.069C145.927 97.8847 142.03 93.9969 136.834 93.9969H9.0934C3.89717 93.9969 0 97.8847 0 103.069V148.427C0 188.601 32.4764 221 72.7472 221C95.2642 221 115.183 210.632 128.607 194.649C135.535 198.969 143.329 201.561 151.557 201.561C174.94 201.561 193.993 182.553 193.993 159.226C194.426 135.899 175.806 116.892 151.99 116.892ZM72.7472 203.289C42.4359 203.289 18.1868 178.666 18.1868 148.859V112.572H127.741V148.859C127.308 178.666 103.059 203.289 72.7472 203.289ZM151.99 183.849C147.227 183.849 142.463 182.553 138.566 179.962C142.896 170.458 145.494 160.09 145.494 148.859V135.899C147.66 135.467 149.392 135.035 151.557 135.035C164.98 135.035 175.806 145.835 175.806 159.226C176.239 173.05 165.846 183.849 151.99 183.849ZM65.8189 55.1184C62.7878 59.0062 63.6538 64.622 67.551 67.6459C69.2831 68.9419 71.0151 69.3738 72.7472 69.3738C75.3453 69.3738 78.3765 68.0779 80.1086 65.918C92.2331 49.5026 84.8718 36.9751 80.1086 29.6314C75.7784 22.7196 74.4793 20.5597 79.6755 14.5119C82.7067 10.6241 82.2736 5.00831 78.3765 1.98442C74.4793 -1.03946 68.8501 -0.607477 65.8189 3.28037C52.8283 19.6957 60.1897 31.7913 64.9529 39.567C68.8501 45.6147 70.5821 48.2066 65.8189 55.1184Z" fill="white"/>
</svg>
