<svg width="60" height="56" viewBox="0 0 60 56" fill="none" xmlns="http://www.w3.org/2000/svg">
<path d="M18.5042 0.987873C18.4186 0.721982 18.2613 0.499706 18.0614 0.33285C18.0564 0.328648 18.0516 0.324247 18.0466 0.320045C18.0204 0.298638 17.9932 0.279031 17.9656 0.259625C17.9536 0.251022 17.9418 0.242219 17.9294 0.234016C17.9072 0.219611 17.8844 0.206407 17.8616 0.193202C17.843 0.182399 17.8246 0.170995 17.8054 0.160991C17.7873 0.151588 17.7685 0.143585 17.7501 0.134982C17.7255 0.123378 17.7009 0.111374 17.6753 0.101171C17.6633 0.0963693 17.6509 0.092768 17.6387 0.0881664C17.6095 0.0773627 17.5805 0.0657589 17.5501 0.0567558C17.5279 0.0503536 17.5056 0.0463523 17.4834 0.0411505C17.2432 -0.0176695 16.9851 -0.0154688 16.7316 0.0609572C16.7248 0.0629579 16.7176 0.0643584 16.7108 0.0665591C16.7086 0.0671593 16.7066 0.0675594 16.7044 0.0683597C16.68 0.0761623 16.657 0.0863659 16.6332 0.0953689C16.6147 0.102371 16.5961 0.108573 16.5781 0.116176C16.5519 0.12738 16.5271 0.140384 16.5019 0.152989C16.4855 0.161191 16.4687 0.168794 16.4525 0.177797C16.4285 0.191001 16.4057 0.205606 16.3827 0.220011C16.3661 0.230415 16.3493 0.240418 16.333 0.251422C16.313 0.265227 16.294 0.280032 16.2748 0.294837C16.2564 0.308841 16.238 0.322446 16.2204 0.337451C16.2054 0.350256 16.1912 0.36386 16.1766 0.377065C16.1562 0.395871 16.1358 0.414678 16.1164 0.434684C16.1062 0.445288 16.0968 0.456292 16.0868 0.467295C16.0648 0.491304 16.0431 0.515712 16.0227 0.541521C16.0163 0.549523 16.0107 0.557926 16.0045 0.565929C15.9825 0.595139 15.9609 0.624749 15.9411 0.655759C15.9373 0.661761 15.9339 0.668164 15.9301 0.674166C15.9095 0.707177 15.8899 0.740788 15.8719 0.776C15.8691 0.781402 15.8667 0.787204 15.8641 0.792806C15.8465 0.828418 15.8297 0.864631 15.8147 0.902043C15.8127 0.907045 15.8113 0.912047 15.8093 0.917048C15.7963 0.95086 15.7833 0.984671 15.7727 1.01988L0.0593161 53.8739C-0.16496 54.6295 0.266387 55.4252 1.02204 55.6509C1.15909 55.6895 1.29494 55.7095 1.42918 55.7095C2.04619 55.7095 2.61338 55.3109 2.79905 54.6881L6.31764 42.8531H29.0764L32.9259 54.7223C33.1216 55.3237 33.6815 55.7095 34.2844 55.7095C34.43 55.7095 34.5787 55.6867 34.7257 55.6423C35.4786 55.3994 35.8899 54.5909 35.6456 53.8424L18.5042 0.987873ZM7.16733 39.9955L17.2025 6.24066L28.1501 39.9955H7.16733Z" fill="#18A575"/>
<path d="M59.7746 31.1661C58.2405 28.7719 56.1306 27.3064 53.4965 26.805C46.9855 25.5636 39.586 30.849 39.273 31.0733C38.6316 31.5361 38.4902 32.4276 38.9501 33.0674C39.4101 33.7072 40.3044 33.8488 40.9442 33.3889C41.0098 33.3389 47.6353 28.6093 52.9621 29.6106C54.6949 29.9405 56.0648 30.8448 57.1403 32.3689V37.292C53.8402 37.1206 44.9388 37.0785 40.5571 41.1041C38.8229 42.6954 37.96 44.7209 37.99 47.128C38.0314 50.4393 39.8256 53.0476 43.0411 54.4789C44.8581 55.2873 47.0695 55.6731 49.3223 55.6731C52.0834 55.6731 54.9038 55.0951 57.1403 54.0223V54.2802C57.1403 55.0701 57.7789 55.7087 58.5688 55.7087C59.3587 55.7087 59.9973 55.0701 60.0001 54.2802V31.936C60.0003 31.6631 59.9231 31.3946 59.7746 31.1661ZM44.2041 51.8706C42.0058 50.8892 40.8758 49.2821 40.8472 47.0923C40.8272 45.511 41.363 44.2454 42.4871 43.2096C46.1002 39.8855 54.3198 40.0061 57.1405 40.1568V50.7326C54.311 52.7337 48.2573 53.6766 44.2041 51.8706Z" fill="#18A575"/>
</svg>
