<svg width="74" height="70" viewBox="0 0 74 70" fill="none" xmlns="http://www.w3.org/2000/svg">
<path d="M70.9046 18.2419H23.0852C22.7381 18.2419 22.4343 18.1255 22.174 17.8928C21.9136 17.66 21.7545 17.3691 21.6966 17.0199L18.9195 2.70574C18.8038 1.89111 18.4566 1.23649 17.878 0.741895C17.2995 0.247298 16.6052 0 15.7952 0H3.12432C2.25645 0 1.51876 0.305486 0.911259 0.916459C0.303753 1.52743 0 2.26933 0 3.14214V3.57855C0 4.45137 0.303753 5.20781 0.911259 5.84788C1.51876 6.48795 2.25645 6.80798 3.12432 6.80798H11.9765C12.208 6.80798 12.4105 6.88071 12.5841 7.02618C12.7576 7.17165 12.8733 7.36076 12.9312 7.59352L21.7834 55.0748C21.957 56.1804 22.5356 56.995 23.5192 57.5187C23.982 57.8096 24.5027 57.9551 25.0813 57.9551H26.5567C25.2838 59.4098 24.6763 61.1118 24.7342 63.0611C24.792 65.0104 25.5152 66.6542 26.9038 67.9925C28.2924 69.3308 29.9558 70 31.8941 70C33.8323 70 35.5102 69.3308 36.9277 67.9925C38.3452 66.6542 39.0829 65.0104 39.1407 63.0611C39.1986 61.1118 38.5622 59.4098 37.2314 57.9551H53.3737C52.043 59.4098 51.421 61.1118 51.5078 63.0611C51.5946 65.0104 52.3323 66.6542 53.7209 67.9925C55.1095 69.3308 56.7729 70 58.7111 70C60.6493 70 62.3127 69.3308 63.7013 67.9925C65.0899 66.6542 65.8131 65.0104 65.871 63.0611C65.9288 61.1118 65.3213 59.4098 64.0485 57.9551H65.5238C66.3917 57.9551 67.1294 57.6496 67.7369 57.0387C68.3444 56.4277 68.6482 55.6858 68.6482 54.813V54.1147C68.6482 53.2419 68.3299 52.5 67.6935 51.889C67.0571 51.2781 66.3049 50.9726 65.4371 50.9726H29.0735C28.7263 50.9726 28.4226 50.8562 28.1622 50.6234C27.9019 50.3907 27.7428 50.1288 27.6849 49.8379L26.817 45.1247C26.7592 44.6592 26.8749 44.2519 27.1642 43.9027C27.4535 43.5536 27.8006 43.4081 28.2056 43.4663H68.1274C68.8796 43.4663 69.5305 43.2336 70.0801 42.7681C70.6298 42.3026 70.9625 41.6916 71.0782 40.9352L73.9421 21.8204C74.1157 20.8894 73.8988 20.0603 73.2912 19.3329C72.6837 18.6056 71.8882 18.2419 70.9046 18.2419Z" fill="#1DAA79"/>
</svg>
