<svg width="53" height="76" viewBox="0 0 53 76" fill="none" xmlns="http://www.w3.org/2000/svg">
<path d="M52.2973 27.2852C51.7002 25.9519 50.7326 24.8197 49.5106 24.0244C48.2886 23.2291 46.8639 22.8044 45.4076 22.8014H38.5557L43.5905 10.4138C44.0403 9.27638 44.2097 8.04674 44.0845 6.82945C43.9593 5.61216 43.5431 4.44323 42.8712 3.42205C42.1531 2.36414 41.1874 1.49917 40.0588 0.902944C38.9303 0.306714 37.6732 -0.00257893 36.3979 0.00216825H19.9685C18.4157 -0.0350648 16.8891 0.408004 15.5956 1.27128C14.3022 2.13456 13.3046 3.37627 12.7381 4.828L0.510691 35.227C0.0728339 36.3622 -0.0869394 37.5864 0.0448164 38.7965C0.176572 40.0066 0.596003 41.1673 1.26781 42.1807C1.98595 43.2386 2.95162 44.1036 4.08019 44.6998C5.20877 45.2961 6.4658 45.6054 7.74113 45.6006H18.1893L11.3374 71.2117C11.1091 72.0476 11.1724 72.9367 11.5167 73.7315C11.8609 74.5263 12.4655 75.1791 13.2302 75.5816C13.8205 75.8657 14.4684 76.0088 15.123 75.9996C15.6698 75.9996 16.2101 75.8808 16.7067 75.6512C17.2034 75.4216 17.6446 75.0867 18 74.6696L51.313 35.265C52.2041 34.1603 52.7686 32.827 52.9426 31.4165C53.1166 30.0059 52.893 28.5746 52.2973 27.2852Z" fill="#17A374"/>
</svg>
